# Blender 3.3.1
# www.blender.org
mtllib untitled.mtl
o Figura1
v 0.000000 -1.000000 0.000000
v 0.723607 -0.447220 0.525725
v -0.276388 -0.447220 0.850649
v -0.894426 -0.447216 0.000000
v -0.276388 -0.447220 -0.850649
v 0.723607 -0.447220 -0.525725
v 0.276388 0.447220 0.850649
v -0.723607 0.447220 0.525725
v -0.723607 0.447220 -0.525725
v 0.276388 0.447220 -0.850649
v 0.894426 0.447216 0.000000
v 0.000000 1.000000 0.000000
v -0.162456 -0.850654 0.499995
v 0.425323 -0.850654 0.309011
v 0.262869 -0.525738 0.809012
v 0.850648 -0.525736 0.000000
v 0.425323 -0.850654 -0.309011
v -0.525730 -0.850652 0.000000
v -0.688189 -0.525736 0.499997
v -0.162456 -0.850654 -0.499995
v -0.688189 -0.525736 -0.499997
v 0.262869 -0.525738 -0.809012
v 0.951058 0.000000 0.309013
v 0.951058 0.000000 -0.309013
v 0.000000 0.000000 1.000000
v 0.587786 0.000000 0.809017
v -0.951058 0.000000 0.309013
v -0.587786 0.000000 0.809017
v -0.587786 0.000000 -0.809017
v -0.951058 0.000000 -0.309013
v 0.587786 0.000000 -0.809017
v 0.000000 0.000000 -1.000000
v 0.688189 0.525736 0.499997
v -0.262869 0.525738 0.809012
v -0.850648 0.525736 0.000000
v -0.262869 0.525738 -0.809012
v 0.688189 0.525736 -0.499997
v 0.162456 0.850654 0.499995
v 0.525730 0.850652 0.000000
v -0.425323 0.850654 0.309011
v -0.425323 0.850654 -0.309011
v 0.162456 0.850654 -0.499995
vn 0.1024 -0.9435 0.3151
vn 0.7002 -0.6617 0.2680
vn -0.2680 -0.9435 0.1947
vn -0.2680 -0.9435 -0.1947
vn 0.1024 -0.9435 -0.3151
vn 0.9050 -0.3304 0.2680
vn 0.0247 -0.3304 0.9435
vn -0.8897 -0.3304 0.3151
vn -0.5746 -0.3304 -0.7488
vn 0.5346 -0.3304 -0.7779
vn 0.8026 -0.1256 0.5831
vn -0.3066 -0.1256 0.9435
vn -0.9921 -0.1256 -0.0000
vn -0.3066 -0.1256 -0.9435
vn 0.8026 -0.1256 -0.5831
vn 0.4089 0.6617 0.6284
vn -0.4713 0.6617 0.5831
vn -0.7002 0.6617 -0.2680
vn 0.0385 0.6617 -0.7488
vn 0.7240 0.6617 -0.1947
vn 0.2680 0.9435 -0.1947
vn 0.4911 0.7947 -0.3568
vn 0.4089 0.6617 -0.6284
vn -0.1024 0.9435 -0.3151
vn -0.1876 0.7947 -0.5773
vn -0.4713 0.6617 -0.5831
vn -0.3313 0.9435 -0.0000
vn -0.6071 0.7947 -0.0000
vn -0.7002 0.6617 0.2680
vn -0.1024 0.9435 0.3151
vn -0.1876 0.7947 0.5773
vn 0.0385 0.6617 0.7488
vn 0.2680 0.9435 0.1947
vn 0.4911 0.7947 0.3568
vn 0.7240 0.6617 0.1947
vn 0.8897 0.3304 -0.3151
vn 0.7947 0.1876 -0.5773
vn 0.5746 0.3304 -0.7488
vn -0.0247 0.3304 -0.9435
vn -0.3035 0.1876 -0.9342
vn -0.5346 0.3304 -0.7779
vn -0.9050 0.3304 -0.2680
vn -0.9822 0.1876 -0.0000
vn -0.9050 0.3304 0.2680
vn -0.5346 0.3304 0.7779
vn -0.3035 0.1876 0.9342
vn -0.0247 0.3304 0.9435
vn 0.5746 0.3304 0.7488
vn 0.7947 0.1876 0.5773
vn 0.8897 0.3304 0.3151
vn 0.3066 0.1256 -0.9435
vn 0.3035 -0.1876 -0.9342
vn 0.0247 -0.3304 -0.9435
vn -0.8026 0.1256 -0.5831
vn -0.7947 -0.1876 -0.5773
vn -0.8897 -0.3304 -0.3151
vn -0.8026 0.1256 0.5831
vn -0.7947 -0.1876 0.5773
vn -0.5746 -0.3304 0.7488
vn 0.3066 0.1256 0.9435
vn 0.3035 -0.1876 0.9342
vn 0.5346 -0.3304 0.7779
vn 0.9921 0.1256 -0.0000
vn 0.9822 -0.1876 -0.0000
vn 0.9050 -0.3304 -0.2680
vn 0.4713 -0.6617 -0.5831
vn 0.1876 -0.7947 -0.5773
vn -0.0385 -0.6617 -0.7488
vn -0.4089 -0.6617 -0.6284
vn -0.4911 -0.7947 -0.3568
vn -0.7240 -0.6617 -0.1947
vn -0.7240 -0.6617 0.1947
vn -0.4911 -0.7947 0.3568
vn -0.4089 -0.6617 0.6284
vn 0.7002 -0.6617 -0.2680
vn 0.6071 -0.7947 -0.0000
vn 0.3313 -0.9435 -0.0000
vn -0.0385 -0.6617 0.7488
vn 0.1876 -0.7947 0.5773
vn 0.4713 -0.6617 0.5831
vt 0.181819 0.000000
vt 0.909091 0.000000
vt 0.727273 0.000000
vt 0.545455 0.000000
vt 0.363637 0.000000
vt 0.713422 0.240001
vt 0.272728 0.157461
vt 0.221576 0.124779
vt 1.000000 0.157461
vt 0.090910 0.157461
vt 0.818182 0.157461
vt 0.636364 0.157461
vt 0.454546 0.157461
vt 0.351847 0.573806
vt 0.000000 0.314921
vt 0.909091 0.314921
vt 0.727273 0.314921
vt 0.545455 0.314921
vt 0.713422 0.910431
vt 0.359743 0.308177
vt 0.363637 0.314921
vt 0.454546 0.472382
vt 0.636364 0.472382
vt 0.818182 0.472382
vt 0.090910 0.472382
vt 0.272728 0.472382
vt 0.954545 0.078731
vt 0.136365 0.078731
vt 0.318182 0.078731
vt 0.227273 0.078731
vt 0.473792 0.156305
vt 0.181819 0.157461
vt 0.363637 0.157461
vt 0.500000 0.078731
vt 0.409092 0.078731
vt 0.772727 0.078731
vt 0.863636 0.078731
vt 0.000084 0.000084
vt 0.909091 0.157461
vt 0.590909 0.078731
vt 0.681818 0.078731
vt 0.727273 0.157461
vt 0.545455 0.157461
vt 0.322075 0.229448
vt 0.318182 0.236191
vt 0.409092 0.236191
vt 0.288452 0.355291
vt 0.223380 0.229448
vt 0.548694 0.432133
vt 0.863636 0.236191
vt 0.045455 0.236191
vt 0.954545 0.236191
vt 0.025396 0.286402
vt 0.681818 0.236191
vt 0.772727 0.236191
vt 0.500000 0.236191
vt 0.590909 0.236191
vt 0.544151 0.720767
vt 0.272728 0.314921
vt 0.090910 0.314921
vt 0.110178 0.560632
vt 0.818182 0.314921
vt 0.636364 0.314921
vt 0.454546 0.314921
vt 0.136365 0.393651
vt 0.227273 0.393651
vt 0.268061 0.800869
vt 0.409092 0.393651
vt 0.318182 0.393651
vt 0.475477 0.999916
vt 0.863636 0.393651
vt 0.045455 0.393651
vt 0.681818 0.393651
vt 0.772727 0.393651
vt 0.500000 0.393651
vt 0.590909 0.393651
s 0
usemtl Material.013
f 1/1/1 14/30/1 13/28/1
f 2/7/2 14/29/2 16/33/2
f 1/2/3 13/27/3 18/37/3
f 1/3/4 18/36/4 20/41/4
f 1/4/5 20/40/5 17/34/5
f 2/7/6 16/33/6 23/45/6
f 3/8/7 15/31/7 25/47/7
f 4/11/8 19/39/8 27/50/8
f 5/12/9 21/42/9 29/54/9
f 6/13/10 22/43/10 31/56/10
f 2/7/11 23/44/11 26/48/11
f 3/8/12 25/47/12 28/53/12
f 4/11/13 27/50/13 30/55/13
f 5/12/14 29/54/14 32/57/14
f 6/13/15 31/56/15 24/46/15
f 7/14/16 33/58/16 38/67/16
f 8/15/17 34/60/17 40/72/17
f 9/17/18 35/62/18 41/74/18
f 10/18/19 36/63/19 42/76/19
f 11/21/20 37/64/20 39/68/20
f 39/68/21 42/75/21 12/22/21
f 39/68/22 37/64/22 42/75/22
f 37/64/23 10/18/23 42/75/23
f 42/76/24 41/73/24 12/23/24
f 42/76/25 36/63/25 41/73/25
f 36/63/26 9/17/26 41/73/26
f 41/74/27 40/71/27 12/24/27
f 41/74/28 35/62/28 40/71/28
f 35/62/29 8/16/29 40/71/29
f 40/72/30 38/65/30 12/25/30
f 40/72/31 34/60/31 38/65/31
f 34/61/32 7/14/32 38/67/32
f 38/66/33 39/69/33 12/26/33
f 38/67/34 33/58/34 39/70/34
f 33/58/35 11/19/35 39/70/35
f 24/46/36 37/64/36 11/21/36
f 24/46/37 31/56/37 37/64/37
f 31/56/38 10/18/38 37/64/38
f 32/57/39 36/63/39 10/18/39
f 32/57/40 29/54/40 36/63/40
f 29/54/41 9/17/41 36/63/41
f 30/55/42 35/62/42 9/17/42
f 30/55/43 27/50/43 35/62/43
f 27/50/44 8/16/44 35/62/44
f 28/51/45 34/60/45 8/15/45
f 28/53/46 25/47/46 34/61/46
f 25/47/47 7/14/47 34/61/47
f 26/49/48 33/58/48 7/14/48
f 26/48/49 23/44/49 33/59/49
f 23/44/50 11/20/50 33/59/50
f 31/56/51 32/57/51 10/18/51
f 31/56/52 22/43/52 32/57/52
f 22/43/53 5/12/53 32/57/53
f 29/54/54 30/55/54 9/17/54
f 29/54/55 21/42/55 30/55/55
f 21/42/56 4/11/56 30/55/56
f 27/50/57 28/52/57 8/16/57
f 27/50/58 19/39/58 28/52/58
f 19/38/59 3/8/59 28/53/59
f 25/47/60 26/49/60 7/14/60
f 25/47/61 15/31/61 26/49/61
f 15/31/62 2/6/62 26/49/62
f 23/45/63 24/46/63 11/21/63
f 23/45/64 16/33/64 24/46/64
f 16/33/65 6/13/65 24/46/65
f 17/34/66 22/43/66 6/13/66
f 17/34/67 20/40/67 22/43/67
f 20/40/68 5/12/68 22/43/68
f 20/41/69 21/42/69 5/12/69
f 20/41/70 18/36/70 21/42/70
f 18/36/71 4/11/71 21/42/71
f 18/37/72 19/39/72 4/11/72
f 18/37/73 13/27/73 19/39/73
f 13/27/74 3/9/74 19/39/74
f 16/33/75 17/35/75 6/13/75
f 16/33/76 14/29/76 17/35/76
f 14/29/77 1/5/77 17/35/77
f 13/28/78 15/32/78 3/10/78
f 13/28/79 14/30/79 15/32/79
f 14/30/80 2/7/80 15/32/80
